<svg xmlns="http://www.w3.org/2000/svg" viewBox="0 0 993.8 329.1"><path d="M484.8 111.4c6.2 0 12.6-2.2 18.6-6.5 1.8 1.7 3.7 3.3 5.7 4.6l.3.2h17.4v-4l-1.2-.1c-3.2-.2-6.2-3.4-8.9-6.7l-4-4.5c2-3.4 3.4-7 4.1-10.9 1-5.4 1.1-5.8 5.8-5.9h1.2v-4h-18.2v4h1.2c3.7.1 3.7.4 3.7 4.4 0 2.8-.6 5.5-1.8 8l-15-16.4c10.4-3.2 15.1-7.9 15.1-15.2 0-8.9-7.7-15.2-18.8-15.2-11.9 0-19.9 7.2-19.9 17.8 0 4.7 1.8 9 5.7 13.7-9.2 3.6-13.8 9.3-13.8 17.5 0 9.3 7.1 19.2 22.8 19.2zm5.2-63c2.1-.1 4.2.9 5.5 2.6 1.2 2 1.8 4.3 1.8 6.7 0 6.1-1.8 9.5-6.5 12.2l-.3-.4-1-1.1-.8-.9c-2.7-2.9-5.5-5.8-5.5-10.8s2.7-8.2 6.8-8.3zm-10.5 30.4l20 22c-2.8 1.6-5.8 3.1-9.7 3.1-8.8 0-14.3-5.7-14.3-14.8 0-4.5 1.4-8.1 4-10.3zM477.4 179c-5.2-4.7-11.9-7.3-18.9-7.3h-.1c-11.4.5-20.1 6.1-24.3 15.7-4.9 10.9-2.8 25.5 4.6 33.3 4.8 4.9 11.5 7.7 18.4 7.5 3.3 0 6.6-.6 9.7-1.7 11.5-4 19.2-15 18.9-27.2 0-8.2-2.9-15.2-8.3-20.3zm-7.4 27.5c-.9 9.9-5.2 16-11.1 16l-.1.4v-.4c-6.1-.6-9.1-6.3-10.5-10.9-3.5-11.6-1-27.3 3.4-31.6 1.5-1.6 3.5-2.5 5.7-2.5 1.3 0 2.7.4 3.8 1.1 5.1 2.6 10.3 11.6 8.8 27.9z"></path><path d="M485.5 176.6l1 .2c4.3.9 4.2 2.4 4.1 5.5 0 .7-.1 1.4-.1 2.2v31c0 .8 0 1.5.1 2.2.2 3.1.2 4.6-4.1 5.5l-1 .2v3.5h26.8v-3.6l-1-.2c-5.6-1-5.6-2.5-5.5-5.9V202h3c5.4.1 5.7.7 8.9 6.5l.6 1.1h3.4v-20.8h-3.4l-.6 1.1c-3.2 5.8-3.5 6.4-8.9 6.4h-3v-17.7h5.8c5.8.1 9 1 14.2 9.2l.4.6h3.4v-15.5h-44.1v3.7zM209.9 160c14.7.1 28.8-5.8 38.9-16.4 10.4-10.9 16.2-26.3 16.2-43.1s-5.3-31.3-15.4-41.7c-9.5-9.9-22.8-15.3-37.3-15.3-14.7-.1-28.7 5.8-38.9 16.4-10.4 10.9-16.2 26.2-16.2 43s5.3 31.4 15.4 41.9c9.5 9.7 22.8 15.2 37.3 15.2zm-21.4-93.7c5-8.6 12.1-12.9 21.2-12.9 22.7 0 30.8 29 30.8 53.8 0 11.8-2.4 22.4-6.8 29.9-5 8.6-12.1 13-21.2 13-10.8 0-19-6.3-24.4-18.7-5.8-13.2-6.4-29.1-6.4-35.3.1-11.7 2.5-22.3 6.8-29.8zM285.9 144.7c10 9.9 24.1 15.3 39.8 15.3 4.7 0 21-.5 34.2-6.9l.8-.4v-29.3h-4.9l-.4.8c-6.8 16.1-17.3 25.8-28 25.8-11.5 0-20.2-6.1-26-18.1-6.1-12.7-6.8-27.6-6.8-33.4 0-12.1 2.9-23.3 8.2-31.4 5.9-9 14.4-13.8 24.5-13.8 11 0 20.1 7.5 27.8 22.8l.4.8h4.8V48.7l-.9-.3c-9.9-3.3-20.2-5-30.6-5-15.4-.2-30.2 5.6-41.4 16.2-11.4 10.9-17.7 26.1-17.7 42.9 0 17.2 5.6 31.8 16.2 42.2zM405.1 153c-5.2-2-6.7-6.4-6.8-13.2v-37.9l29.5 44.5c.4.6 1.6 2.7.6 4.2-1 1.3-2.5 2.1-4 2.4v4.2h39.3V153s-5.7-2.1-8.6-6.4l-39.5-57.8 15.3-16.5c8-8.9 18.7-19.7 28.9-22v-4.2H422v4.2c3.4.5 6.1 2.1 6.8 5.1s-3.1 7.8-7.4 12.7l-23.1 25.8V63.6c.1-6.9 1.6-11.2 6.8-13.2v-4.2h-36.4v4.2c5.2 2 6.7 6.4 6.8 13.2v76.2c-.1 6.9-1.6 11.2-6.8 13.2v4.3h36.4V153z"></path><path d="M107 153c-5.5-2-7.1-6.4-7.2-13.2v-28h9l27.9 45.6H166V153c-3.6-1.6-6.8-4.1-9-7.4l-25.4-38.1c13.3-5.4 20.6-15.9 20.6-29.8 0-19.5-15.8-31.6-42.9-31.6H68.4v4.2c5.5 2 7.1 6.4 7.2 13.2v76.2c-.1 6.9-1.7 11.2-7.2 13.2v4.3H107V153zm-7.2-97.1h7.7c13 0 19.7 8.7 19.7 23.3 0 13.7-7.5 22.8-18.7 22.8h-8.6V55.9zM677.8 160c15.1 0 30.1-5.8 40.4-16.4 10.6-10.9 16.4-26.2 16.4-43.1s-5.4-31.3-15.6-41.8c-9.6-9.9-23-15.3-37.7-15.3-14.8-.1-29 5.8-39.4 16.4-10.6 10.9-16.4 26.2-16.4 43s5.4 31.4 15.6 41.9c9.5 9.9 22.9 15.5 36.7 15.3zm-20.6-93.7c5-8.6 12.3-12.9 21.5-12.9 23 0 31.1 29 31.1 53.8 0 11.8-2.4 22.4-6.8 29.9-5 8.6-12.3 13-21.5 13-10.9 0-19.2-6.3-24.7-18.7-5.8-13.2-6.4-29.1-6.4-35.3-.1-11.7 2.4-22.3 6.8-29.8z"></path><path d="M574.8 153c-5.5-2-7.1-6.4-7.2-13.2v-28h9.8l28 45.6h29.5V153c-3.6-1.6-6.8-4.1-9-7.4l-25.5-38.1c13.3-5.4 20.7-15.9 20.7-29.8 0-19.5-16.9-31.6-44.1-31.6h-40.8v4.2c5.5 2 7.1 6.4 7.2 13.2v76.2c-.1 6.9-1.7 11.2-7.2 13.2v4.3h38.7V153zm21-73.8c0 13.7-7.5 22.8-18.8 22.8h-9.5V55.9h9.5c13 0 18.8 8.7 18.8 23.3zM767.5 157.3h157.8v-36.4h-5l-.4.8c-11.1 23.8-19.7 25.8-28.2 25.8h-27.3v-84c.1-6.8 1.7-11.1 7.1-13.2v-4.2h-38.1v4.2c5.4 2 7 6.4 7.1 13.2v76.2c-.1 6.9-4.6 13.2-13.7 13.2v-32.2h-5l-.4.8c-11.1 23.8-19.7 25.8-28.2 25.8h-25.8v-84c.1-6.8 1.7-11.1 7.1-13.2v-4.2h-38.1v4.2c5.4 2 7 6.4 7.1 13.2v76.2c-.1 6.9-1.7 11.2-7.1 13.2v4.3h31.1v.3zM608.8 248.1h5v-41.6h-5l-.4.8c-6.8 13.6-12 15-22.3 15h-18v-39.4h23.4c10.1 0 18.6 1.5 29.2 19.8l.4.7h5.1v-30.3h-90.3v4.2c5.6 2.1 7.2 6.4 7.3 13.2v76.2c-.1 6.9-1.8 11.2-7.3 13.2v4.3h39.4V280c-5.6-2-7.2-6.4-7.4-13.2V232h18c10.3 0 15.5 1.4 22.3 15.2l.6.9zM893 182.9c9.5 0 17.6 1.3 27.7 18.2l.4.7h4.3v-28.7H810l-30 79.2-34.3-79.2h-33.3v4.2c11.2 3 10.2 8.9 9.7 19.7l-3.2 64.1c-.2 4.4-.5 11.6-2.3 15.4-.2.6-.6 1.1-1.1 1.5-.7.5-2.3.5-3.1-1.5-.2-.6-44-104.9-44-104.9H660l-33.6 85.8c-5.1 13.1-10.5 19.9-18.9 22.7v4.2h40.6V280c-6.3-1.6-11-5.2-12.5-8.2-1.3-2.6-1.1-6.3.7-11l3.8-10h36.1l6.2 16.1c1.4 3.8 1.5 5.7 1 7.1-1.2 4.1-4.8 5.2-10.7 6v4.2h68.9V280c-13-2.9-12.5-8.7-11.9-19.7l1.4-29.5 1-30.4 37.2 85.3h8.5l32.8-85 1.1 29.7 1.9 35.9c.2 4.2.1 7.8-1.1 9.7s-2.7 3.3-6.7 4v4.2h119.6v-32h-4.3l-.4.7c-10.6 19.9-19.1 21.5-27.7 21.5h-19v-44.1h12.8c9.8 0 14.8 1.4 21.1 15.2l.4.8h4.4v-41.6h-4.4l-.4.8c-6.3 13.6-11.2 15-21.1 15H874v-37.7h19zm-249.4 58l14.2-37.6 14.5 37.6h-28.7zm207 25.8c-.1 6.9-2 13.2-7.4 13.2-5.9 0-6.5-6-6.9-13.8l-3.8-75.3c-.5-5.1.6-13.6 9.8-13.6 7.3 0 8.3 6.4 8.4 13.2v76.3zM452.3 248.7c-11.1 23.8-19.8 25.8-28.4 25.8h-23.2v-84c.1-6.8 1.7-11.1 7.1-13.2V173h-36.2v4.2c5.4 2.1 5 6.4 5.1 13.2v76.2c-.1 6.9-1.2 13.2-9 13.2v-32.1h-5.1l-.4.8c-11.1 23.8-19.8 25.8-28.4 25.8H307v-84c.1-6.8 1.7-11.1 7.1-13.2V173h-37.2v4.2c5.4 2.1 6 6.4 6.1 13.2v76.2c-.1 6.9-.9 13.2-6.1 13.2-5.6 0-7.9-6.2-10.7-13L225 171.3h-8.6L182 257.4c-3.6 9.1-5.8 15.5-8.9 19.8-2.7 3.6-7.2 3.1-8.9-1.1-1.1-3-1.6-6.1-1.6-9.3v-76.2c.1-6.9 1.7-11.2 7.1-13.2v-4.2h-38.2v4.2c5.4 2 7 6.4 7.1 13.2v30H99.5v-30c.1-6.9 1.7-11.2 7.2-13.2v-4.2H68.4v4.2c5.4 2 7 6.4 7.2 13.2v76.2c-.1 6.9-1.7 11.2-7.2 13.3v4.2h38.3V280c-5.4-2-7-6.4-7.2-13.3v-36.5h39.1v36.5c-.1 6.9-1.7 11.2-7.1 13.3v4.2h67.2V280c-3.2-1.9-5.8-4.8-7.3-8.2-1.4-2.6-1.1-6.3.7-11l3.9-10.1h37.1l6.4 16.1c.8 2 1.1 4.1 1.1 6.2-.2 3.2-2.3 6-5.4 6.9v4.3H457.8v-36.5h-5.1l-.4 1zM199.8 241l14.6-37.6 14.9 37.6h-29.5z"></path></svg>